<svg width="32" height="32" viewBox="0 0 32 32" fill="none" xmlns="http://www.w3.org/2000/svg">
  <path
    d="M0 4C0 1.79086 1.79086 0 4 0H28C30.2091 0 32 1.79086 32 4V28C32 30.2091 30.2091 32 28 32H4C1.79086 32 0 30.2091 0 28V4Z"
    fill="#3D2B1F" />
  <path
    d="M8 22C8 17.5817 11.5817 14 16 14C20.4183 14 24 17.5817 24 22H8Z"
    fill="#F5EDE4" />
  <path
    d="M10 12C10 9.79086 11.7909 8 14 8H18C20.2091 8 22 9.79086 22 12V14H10V12Z"
    fill="#F5EDE4" />
  <path d="M12 6H20V8H12V6Z" fill="#F5EDE4" />
  <path d="M5 5H8V7H5V5ZM24 5H27V7H24V5Z" fill="#F5EDE4" opacity="0.6" />
</svg>
